<mxfile host="app.diagrams.net" modified="2024-06-15T04:14:22.804Z" agent="Mozilla/5.0 (X11; Ubuntu; Linux x86_64; rv:126.0) Gecko/20100101 Firefox/126.0" version="24.3.0" etag="-F7hdn9K9e8Oc5hqrg-b" type="github">
  <diagram name="Page-1" id="ERk4adbQNPBeEjXqJ5i6">
    <mxGraphModel>
      <root>
        <mxCell id="0" />
        <mxCell id="1" parent="0" />
      </root>
    </mxGraphModel>
  </diagram>
</mxfile>
